<svg xmlns="http://www.w3.org/2000/svg" width="512" height="512" viewBox="0 0 512 512" version="1.1">
	<path d="M 143 194.500 L 143 290 152.994 290 L 162.987 290 163.244 215.124 L 163.500 140.248 200 170.680 C 220.075 187.418, 239.711 203.776, 243.636 207.031 L 250.772 212.950 257.025 205.391 C 263.117 198.026, 263.229 197.787, 261.389 196.041 C 258.819 193.604, 152.276 105.075, 147.844 101.694 C 145.901 100.212, 144.016 99, 143.656 99 C 143.295 99, 143 141.975, 143 194.500 M 357.367 111.250 C 351.857 117.987, 337.060 136.775, 324.483 153 C 311.907 169.225, 296.191 189.484, 289.559 198.020 C 282.926 206.557, 271.672 221.069, 264.549 230.270 C 257.425 239.472, 251.350 246.997, 251.049 246.992 C 250.747 246.988, 235.954 235.697, 218.175 221.901 C 200.396 208.105, 185.696 196.971, 185.509 197.159 C 184.973 197.697, 184.519 220.860, 185.036 221.302 C 185.291 221.520, 194.725 228.834, 206 237.555 C 217.275 246.276, 232.731 258.269, 240.346 264.205 C 247.962 270.142, 254.584 274.757, 255.063 274.461 C 255.541 274.166, 268.871 257.178, 284.684 236.712 C 334.415 172.345, 345.149 158.556, 347.101 156.528 C 348.967 154.590, 349 155.735, 349 222.278 L 349 290 358.500 290 L 368 290 368 194.500 C 368 141.975, 367.861 99, 367.692 99 C 367.522 99, 362.876 104.513, 357.367 111.250 M 272 322.526 L 272 330.051 269.050 328.526 C 259.779 323.732, 247.718 330.226, 246.304 340.773 C 245.032 350.251, 249.573 357.711, 258.024 360.029 C 261.792 361.063, 263.212 361.004, 267 359.659 C 269.653 358.717, 271.637 358.459, 271.833 359.031 C 272.017 359.564, 274.379 360, 277.083 360 L 282 360 282 337.500 L 282 315 277 315 L 272 315 272 322.526 M 328.889 332.250 C 328.755 353.144, 328.802 353.767, 330.704 356.671 C 332.418 359.287, 339.066 361.451, 342.634 360.556 C 344.555 360.074, 345 359.307, 345 356.481 C 345 353.448, 344.683 353, 342.535 353 C 341.122 353, 339.629 352.175, 339.035 351.066 C 338.438 349.949, 338 341.917, 338 332.066 L 338 315 333.500 315 L 329 315 328.889 332.250 M 148.735 319.002 C 145.635 320.664, 145 320.749, 145 319.502 C 145 318.366, 143.781 318, 140 318 L 135 318 135 339 L 135 360 140 360 L 145 360 145.015 346.250 C 145.031 331.202, 145.783 328.352, 150.308 326.182 C 154.057 324.384, 159.756 326.229, 161.062 329.663 C 161.578 331.020, 162 338.401, 162 346.065 L 162 360 166.928 360 L 171.856 360 172.178 345.025 C 172.474 331.236, 172.671 329.879, 174.664 327.889 C 177.647 324.910, 184.354 324.911, 187.336 327.890 C 189.326 329.879, 189.527 331.253, 189.842 345.026 L 190.183 360 195.178 360 L 200.172 360 199.828 343.750 C 199.444 325.637, 198.569 322.584, 192.701 318.903 C 188.229 316.096, 177.413 316.579, 173.085 319.779 L 170.085 321.997 166.403 319.499 C 161.697 316.305, 154.162 316.093, 148.735 319.002 M 215.271 328.964 C 208.572 332.005, 204.967 339.681, 206.472 347.701 C 207.405 352.675, 213.279 358.459, 218.945 359.985 C 227.794 362.368, 237.674 358.038, 240.546 350.520 C 242.634 345.051, 242.078 337.929, 239.266 334.136 C 234.252 327.372, 223.759 325.110, 215.271 328.964 M 298.001 328.123 C 286.617 332.662, 284.414 349.294, 294.183 356.940 C 300.156 361.615, 312.396 361.739, 318.024 357.181 L 320.238 355.389 317.843 352.604 L 315.448 349.819 311.835 351.542 C 309.358 352.723, 307.119 353.057, 304.712 352.606 C 301.344 351.974, 298.141 349.526, 299.241 348.425 C 299.531 348.136, 304.770 346.955, 310.884 345.802 C 321.674 343.766, 322 343.628, 322 341.087 C 322 336.934, 318.628 331.693, 314.396 329.266 C 310.185 326.852, 302.527 326.319, 298.001 328.123 M 352.797 329.044 C 348.444 331.343, 346.500 336.267, 348.116 340.902 C 349.348 344.438, 352.161 345.950, 360.167 347.383 C 365.446 348.327, 366.500 348.847, 366.500 350.508 C 366.500 352.264, 365.849 352.492, 361 352.431 C 357.975 352.392, 354.127 352.017, 352.449 351.595 C 349.772 350.923, 349.252 351.152, 348.199 353.462 C 347.540 354.910, 347 356.488, 347 356.970 C 347 358.569, 354.412 360.368, 361 360.368 C 371.322 360.366, 376 357.010, 376 349.605 C 376 343.830, 373.593 342.367, 359.250 339.424 C 356.405 338.840, 356.343 336.422, 359.133 334.929 C 361.095 333.879, 365.281 334.112, 370.559 335.566 C 372.104 335.992, 372.915 335.481, 373.809 333.520 C 375.571 329.653, 375.355 329.193, 371.250 328.053 C 365.283 326.396, 356.966 326.842, 352.797 329.044 M 300.758 335.976 C 299.376 337.063, 298.008 338.863, 297.717 339.976 C 297.087 342.384, 298.191 342.497, 306.333 340.862 C 312.457 339.632, 313.438 338.121, 309.777 335.557 C 306.781 333.458, 303.781 333.598, 300.758 335.976 M 218.455 337.455 C 211.700 344.210, 219.454 355.919, 227.818 351.594 C 231.183 349.854, 232 348.248, 232 343.373 C 232 338.877, 228.296 335, 224 335 C 222.052 335, 220.002 335.907, 218.455 337.455 M 258.455 337.455 C 256.693 339.217, 256.009 340.980, 256.032 343.705 C 256.104 352.263, 264.902 355.754, 270.016 349.253 C 274.439 343.629, 270.797 335, 264 335 C 262.052 335, 260.002 335.907, 258.455 337.455 M 178.766 379.916 L 175.500 382.831 175.164 394.416 C 174.839 405.600, 174.900 406, 176.914 406 C 178.684 406, 179 405.389, 179 401.960 L 179 397.919 187.250 398.210 L 195.500 398.500 195.810 402.250 C 196.054 405.188, 196.541 406, 198.060 406 C 199.851 406, 200 405.229, 200 395.950 C 200 381.184, 197.194 377, 187.293 377 C 182.894 377, 181.496 377.478, 178.766 379.916 M 181.073 383.635 C 179.788 385.268, 179 387.739, 179 390.135 L 179 394 187.636 394 L 196.272 394 195.631 389.323 C 194.770 383.040, 192.757 381, 187.418 381 C 183.993 381, 182.734 381.523, 181.073 383.635 M 209.538 386.250 C 201.499 393.279, 206.929 405.840, 217.500 404.665 C 219.700 404.421, 222.230 403.920, 223.122 403.552 C 224.427 403.015, 224.650 403.379, 224.262 405.411 C 223.381 410.018, 218.720 411.642, 212.566 409.487 C 208.399 408.028, 207 408.273, 207 410.461 C 207 413.688, 218.894 415.140, 223.941 412.530 C 227.868 410.500, 229 406.431, 229 394.351 C 229 384.817, 228.849 384, 227.083 384 C 226.029 384, 224.995 384.515, 224.786 385.143 C 224.500 386.001, 223.871 386.001, 222.268 385.143 C 218.640 383.202, 212.405 383.744, 209.538 386.250 M 239.110 385.396 C 235.877 387.187, 234.078 390.717, 234.035 395.350 C 234.007 398.421, 234.688 399.888, 237.400 402.600 C 240.347 405.547, 241.447 405.996, 245.650 405.968 C 250.909 405.934, 254.582 403.959, 253.693 401.643 C 253.217 400.402, 252.577 400.381, 249.326 401.499 C 246.315 402.534, 244.900 402.557, 242.576 401.609 C 238.837 400.083, 238.184 398.211, 241.179 397.601 C 255.081 394.770, 255.510 394.600, 255.247 392 C 255.108 390.625, 253.639 388.262, 251.981 386.750 C 248.606 383.669, 243.243 383.105, 239.110 385.396 M 261 395 C 261 405.333, 261.121 406, 263 406 C 264.803 406, 265 405.333, 265 399.223 C 265 390.529, 266.583 388, 272.022 388 C 277.042 388, 278 389.752, 278 398.934 C 278 405.333, 278.189 406, 280 406 C 281.844 406, 282 405.333, 282 397.455 C 282 389.715, 281.769 388.678, 279.545 386.455 C 276.837 383.746, 271.458 383.149, 267.732 385.143 C 266.129 386.001, 265.500 386.001, 265.214 385.143 C 265.005 384.515, 263.971 384, 262.917 384 C 261.144 384, 261 384.826, 261 395 M 290.974 386.872 C 286.077 391.770, 285.842 397.379, 290.316 402.581 C 293.611 406.412, 301.323 407.126, 305.321 403.970 C 309.220 400.892, 307.389 399.113, 302.642 401.365 C 297.037 404.026, 291.954 401.095, 291.784 395.104 C 291.614 389.138, 296.974 385.945, 302.642 388.635 C 307.313 390.851, 309.242 389.122, 305.436 386.129 C 301.277 382.857, 294.649 383.197, 290.974 386.872 M 313 392.045 C 313 399.254, 313.255 400.346, 315.455 402.545 C 318.107 405.197, 323.525 405.860, 327.066 403.965 C 328.673 403.105, 329 403.262, 329 404.893 C 329 409.572, 325.464 410.611, 315.538 408.848 C 312.514 408.311, 312.490 411.447, 315.508 412.822 C 321.083 415.362, 330.861 413.411, 332.379 409.455 C 332.720 408.565, 333 402.473, 333 395.918 C 333 384.667, 332.888 384, 331 384 C 329.195 384, 329 384.667, 329 390.845 C 329 398.688, 327.453 401, 322.206 401 C 318.091 401, 317 398.813, 317 390.566 C 317 384.667, 316.797 384, 315 384 C 313.166 384, 313 384.667, 313 392.045 M 215 387.709 C 210.130 389.500, 208.570 394.514, 211.557 398.777 C 214.536 403.032, 223.098 401.139, 224.117 396 C 224.799 392.564, 222.979 389.188, 219.857 388.100 C 218.121 387.495, 216.656 387.036, 216.601 387.079 C 216.545 387.122, 215.825 387.406, 215 387.709 M 242.242 388.034 C 240.163 388.869, 237.132 393.507, 238.088 394.389 C 238.314 394.598, 241.313 394.310, 244.750 393.747 C 251.472 392.647, 252.580 391.220, 248.777 388.557 C 246.278 386.806, 245.460 386.741, 242.242 388.034" stroke="none" fill="black" fill-rule="evenodd"/>
</svg>